PathFileType	4	(X/Y/Z)	Patient4_TMGait_0pt7_01_right_02.trc.trc
DataRate	CameraRate	NumFrames	NumMarkers	Units	OrigDataRate	OrigDataStartFrame	OrigNumFrames
85.889570552147	85.889570552147	5	33	mm	85.889570552147	106	       141
Frame#	Time	Sacral			L.Shoulder			Chest			R.Shoulder			Neck			R.ASIS			L.ASIS			R.Thigh.Superior			R.Thigh.Lateral			R.Thigh.Inferior			R.Patella			L.Thigh.Superior			L.Thigh.Lateral			L.Thigh.Inferior			L.Patella			L.Shank.Superior			L.Shank.Lateral			L.Shank.Inferior			R.Shank.Superior			R.Shank.Lateral			R.Shank.Inferior			R.Heel			R.Midfoot.Superior			R.Midfoot.Lateral			R.Toe			L.Heel			L.Midfoot.Lateral			L.Midfoot.Superior			L.Toe			L.Elbow			L.Wrist			R.Elbow			R.Wrist			
		X1	Y1	Z1	X2	Y2	Z2	X3	Y3	Z3	X4	Y4	Z4	X5	Y5	Z5	X6	Y6	Z6	X7	Y7	Z7	X8	Y8	Z8	X9	Y9	Z9	X10	Y10	Z10	X11	Y11	Z11	X12	Y12	Z12	X13	Y13	Z13	X14	Y14	Z14	X15	Y15	Z15	X16	Y16	Z16	X17	Y17	Z17	X18	Y18	Z18	X19	Y19	Z19	X20	Y20	Z20	X21	Y21	Z21	X22	Y22	Z22	X23	Y23	Z23	X24	Y24	Z24	X25	Y25	Z25	X26	Y26	Z26	X27	Y27	Z27	X28	Y28	Z28	X29	Y29	Z29	X30	Y30	Z30	X31	Y31	Z31	X32	Y32	Z32	X33	Y33	Z33	

106	2.932500000000	704.851463242848	1010.068539973995	493.591600232634	912.497693895744	1413.702713905086	288.961878507045	999.591101677027	1356.599334067410	464.660075786514	906.664277438655	1454.409423704034	622.517638955079	906.716670991534	1491.147284730865	437.328050846670	925.405934532688	946.393963400992	621.630454767348	926.810326704006	963.151013792193	347.238693406575	1015.861359174602	787.305625744722	606.903928093650	978.531011493062	663.936151761694	682.171443482500	1078.214667678032	631.096957734440	613.143371666335	1105.033345230041	521.829199123725	639.877331351677	958.503626743700	750.203928525666	369.143535612163	860.309368214739	641.398413077679	309.530511036493	941.958618708543	557.536271112786	366.629992921348	937.550555192241	489.139309939735	374.735072507115	910.148714075832	418.480220393703	368.537005851252	815.031046144996	305.235208373658	324.221263245034	871.033801102341	194.083546257168	392.751389251757	1041.211973647377	438.080011409571	637.591585094045	923.483401600022	376.146024592111	684.320225814307	934.151905800030	267.267182797199	633.493566377308	752.098333109154	170.386416109353	583.327934133899	922.621464750780	142.830758032467	641.837431658244	812.553533376621	121.961290672985	663.784242600730	1003.556151526140	44.741896703888	678.059582267913	746.304847570205	37.308783761623	442.535488338061	818.325461721550	34.634474111784	359.184478737584	901.299615851669	96.618654801982	383.346812431457	1029.506113057612	47.977697469901	353.762066424894	903.836337694269	1056.746739981783	194.573915231092	1040.936101778871	835.183452523730	204.725053020590	770.672291794304	1148.762314692631	764.158038902271	793.008025412650	888.379129236406	793.660138208738	
107	2.944142857143	703.948272215474	1009.655223749518	493.085517693921	912.761799439863	1413.343988179348	289.176444357956	999.206641619320	1356.096082533626	465.123008618630	905.935913652030	1453.888380875036	622.733504109399	906.464645567590	1490.708111820538	437.513815234379	924.365592391252	946.160101064948	621.805070222276	927.101978833610	963.329548814861	347.131514310865	1015.815377997621	788.356871290566	606.320410410720	979.925293966280	664.538453545366	681.425003732552	1079.225057169950	632.543655505830	611.670811520613	1107.886819035055	524.942979627424	638.497979476613	956.713200430400	749.298058495636	369.955462199746	857.534257072027	641.202480190773	309.694682863741	937.791392726980	556.615538407649	367.244940872770	932.672334028923	488.278315508662	375.516487289672	904.961919475354	417.802165019705	369.202617179064	809.459294742715	305.201791057597	324.276610239465	864.075851188645	193.646648447254	393.133655219517	1047.657814609623	439.485604313244	637.163524743254	933.747632415030	371.911758673914	685.174229571718	949.716367725360	263.349803037174	634.893903132519	772.695079849168	157.178539000356	586.428474910951	944.584843861623	138.163705926958	644.184926225150	835.796749298860	112.319516109710	666.920720932187	1030.358482279106	44.312323423944	680.863597426849	738.165632534322	37.385521424940	442.522140019368	810.188763124155	34.702660725532	359.258045118769	893.322984073974	96.344718920978	383.557094162016	1021.467792265197	47.378349826405	353.728715226050	908.255079770362	1056.701958804747	193.971029590733	1056.501200718751	842.375638944881	206.351678596633	765.593097929341	1150.357401680268	763.746647602130	773.837663505779	889.503343453232	797.036073878224	
108	2.955785714286	703.116844211729	1009.201216513790	492.750725551721	913.088287173657	1412.952544570826	289.599828464353	998.920947984310	1355.487411175986	465.759169098453	905.364850359570	1453.259796383430	623.157239605213	906.314837530698	1490.190603624117	437.935181298468	923.413994344889	945.765591855977	622.066265531512	927.525558571645	963.525119184365	347.026641846756	1015.485961827271	788.874976910916	605.826958400931	980.584868898567	664.654565629658	680.672982441502	1079.430131887971	633.255492201262	610.275857480491	1109.724186695323	527.573590205860	637.089340732460	954.957491965845	748.367697545705	370.810446613635	854.814503346077	640.963211476847	309.928632930040	933.624327573112	555.692542521419	367.987457757130	927.787257535706	487.402594739249	376.436448433174	899.797518473914	417.098857061258	369.973982232020	803.970711723382	305.132547454381	324.365069749147	857.168402569984	193.204827819113	393.582160055330	1053.369795366275	440.604450297495	636.745984604462	943.866111978654	367.356871986971	686.170744409028	965.402601598859	259.477487346182	636.418621105207	794.277426877657	143.937401536180	589.736917558216	967.101012859015	133.794055185632	646.680155768408	859.915802524825	102.878601882907	670.206787163205	1057.641562854115	44.560532212955	683.759958035976	730.036874973047	37.467498110553	442.502432520987	802.048877461820	34.772539224250	359.333773689613	885.348405742229	96.090825423154	383.775031452229	1013.426583468338	46.776491455304	353.689790413725	912.328811829849	1056.713811313875	193.532422619279	1071.569317238868	850.457697353599	208.216970167169	760.528012992970	1152.075685415044	763.554773008532	755.956547977935	891.623159573315	800.261077999525	
109	2.967428571429	702.379557217970	1008.722741611682	492.584413123623	913.472070479778	1412.539919696706	290.230182184869	998.737328525067	1354.792560380108	466.563727171322	904.954403238254	1452.546037931003	623.784103688714	906.274539689071	1489.608405957092	438.584722230265	922.571215525286	945.228926278151	622.410073078888	928.033535673512	963.706514377045	346.948371020344	1014.851740642564	788.836655426453	605.432860569306	980.447328441177	664.275232425500	679.961623613150	1078.794523295494	633.212864095811	609.018482565480	1110.502662878981	529.696403997655	635.683303324451	953.225138937983	747.406680896823	371.712995048612	852.128733890120	640.688844285574	310.230468938030	929.431122215043	554.768621602648	368.863805512213	922.859174641405	486.518116941311	377.497678281468	894.621944168026	416.381946220728	370.841989942550	798.526811505265	305.032399694061	324.487121624232	850.296004441484	192.768174604634	394.092308811191	1058.293812581817	441.458871129774	636.355826391379	953.787486830733	362.575976875469	687.303298752853	981.109996426600	255.792905676960	638.030011306946	816.767039010389	130.936909995559	593.183726567200	990.050609676155	129.897875373491	649.253593486550	884.799675500202	93.844379041350	673.544535828831	1085.213317016484	45.621437525715	686.600213896703	721.914801906055	37.556152280541	442.476986738423	793.905333570528	34.843964543556	359.409906107385	877.373008393930	95.865410192752	383.996149230847	1005.376979252553	46.189494819237	353.650420425993	916.071084067760	1056.781232144042	193.264913532914	1086.015838490458	859.406961889023	210.303487491035	755.499490153259	1153.938491763418	763.597495800710	739.477917182216	894.530093068618	803.331810741251	
110	2.979071428571	701.759755834162	1008.228948815076	492.579642248704	913.905357764686	1412.117136108801	291.063244036351	998.656311221759	1354.030852776476	467.529177162454	904.704749543450	1451.767254668665	624.607495742217	906.346236545340	1488.974917632185	439.450786013994	921.856197281668	944.572028289207	622.840115909768	928.567746593164	963.828504123495	346.935677505265	1013.895120500106	788.227502846669	605.156200960950	979.478866470275	663.405249548171	679.345989673781	1077.307784479418	632.420687493437	607.950134100102	1110.209394946548	531.298176195333	634.308310394562	951.502146880758	746.405746647631	372.671798527669	849.455010559926	640.388414179725	310.595487027013	925.185807436313	553.844696835715	369.870862714546	917.855067630274	485.632863203624	378.688207327900	889.399184551199	415.664516057398	371.787995094492	793.081842709757	304.909928052114	324.641740868063	843.437438558851	192.346750645969	394.653380279198	1062.387926272533	442.073279532672	636.010499868129	963.432260673929	357.671076112524	688.549428430227	996.697304862455	252.423492772523	639.682698376937	839.996279151464	118.430616791338	596.678400364658	1013.247599051630	126.632860773157	651.833384158442	910.254276585484	85.403971184338	676.831030122348	1112.821114127389	47.598656620977	689.254586527019	713.794920462221	37.653014446154	442.448134375803	785.757855289896	34.917073131373	359.484478664391	869.393504701599	95.675032706788	384.215234360543	997.313574710515	45.635073109200	353.615631382288	919.496293017145	1056.902771339423	193.176140138819	1099.721277291918	869.178246173152	212.593910488492	750.559361347513	1155.944039661967	763.890822192522	724.487155240556	897.999377933477	806.245810694545	
